<svg width="32" height="32" viewBox="0 0 32 32" fill="none" xmlns="http://www.w3.org/2000/svg">
<path d="M12.0003 29.3334H20.0003C26.667 29.3334 29.3337 26.6667 29.3337 20V12C29.3337 5.33335 26.667 2.66669 20.0003 2.66669H12.0003C5.33366 2.66669 2.66699 5.33335 2.66699 12V20C2.66699 26.6667 5.33366 29.3334 12.0003 29.3334Z" stroke="#373E97" stroke-width="1.5" stroke-linecap="round" stroke-linejoin="round"/>
<path fill-rule="evenodd" clip-rule="evenodd" d="M8.7832 12.2933C8.7832 11.8791 9.11899 11.5433 9.5332 11.5433H18.5599C21.2407 11.5433 23.4165 13.7191 23.4165 16.4C23.4165 19.0809 21.2407 21.2567 18.5599 21.2567H11.9999C11.5857 21.2567 11.2499 20.9209 11.2499 20.5067C11.2499 20.0924 11.5857 19.7567 11.9999 19.7567H18.5599C20.4123 19.7567 21.9165 18.2525 21.9165 16.4C21.9165 14.5476 20.4123 13.0433 18.5599 13.0433H9.5332C9.11899 13.0433 8.7832 12.7075 8.7832 12.2933Z" fill="#373E97"/>
<path fill-rule="evenodd" clip-rule="evenodd" d="M11.9567 9.6297C12.2496 9.9226 12.2496 10.3975 11.9567 10.6904L10.392 12.255L11.9584 13.8314C12.2503 14.1252 12.2488 14.6001 11.955 14.892C11.6612 15.184 11.1863 15.1825 10.8943 14.8887L8.801 12.782C8.50969 12.4888 8.51044 12.0153 8.80268 11.723L10.896 9.6297C11.1889 9.33681 11.6638 9.33681 11.9567 9.6297Z" fill="#373E97"/>
</svg>
