<svg width="81" height="30" viewBox="0 0 81 30" fill="none" xmlns="http://www.w3.org/2000/svg">
<path d="M14.2323 9.23731C12.9559 8.65064 11.5412 8.34131 10.0413 8.34131C8.09477 8.34131 6.33966 8.81064 4.85048 9.72798C3.3613 10.6453 2.16995 11.9146 1.29772 13.4933C0.436118 15.072 0 16.8853 0 18.8906C0 20.864 0.446754 22.6666 1.34026 24.256C2.23377 25.8347 3.46767 27.104 5.02067 28.0213C6.57367 28.9386 8.36069 29.408 10.3392 29.408C13.0623 29.408 15.3811 28.5546 17.2213 26.8586C17.5936 26.4853 17.7532 26.0373 17.6894 25.5573C17.6255 25.1093 17.4022 24.6933 17.0299 24.3413C17.0192 24.3306 17.0086 24.32 16.9979 24.32C16.6363 24.0426 16.2321 23.9253 15.796 23.9573C15.3811 23.9893 14.9663 24.16 14.5621 24.4906C14.0196 24.9706 13.4026 25.3226 12.7112 25.5466C12.0092 25.7813 11.2114 25.888 10.3392 25.888C9.06273 25.888 7.9033 25.5786 6.91406 24.9813C5.92482 24.3733 5.13768 23.5413 4.57392 22.496C4.01015 21.4507 3.73359 20.2453 3.73359 18.9013C3.73359 17.5146 3.99952 16.2773 4.53137 15.232C5.05258 14.1973 5.79717 13.3653 6.74387 12.7786C7.67992 12.192 8.79681 11.8933 10.052 11.8933C11.9666 11.8933 13.5196 12.5866 14.7854 14.0266C15.1365 14.4 15.53 14.6346 15.9662 14.7093C16.4129 14.784 16.8278 14.6986 17.2107 14.4426C17.6468 14.1226 17.9234 13.7386 18.0297 13.3013C18.1042 12.9706 18.1042 12.4693 17.6468 11.936C16.6576 10.7306 15.5194 9.83464 14.2323 9.23731Z" fill="white"/>
<path d="M36.3994 9.66405C34.9741 8.78938 33.2934 8.35205 31.3894 8.35205C29.4428 8.35205 27.6877 8.81072 26.1986 9.71738C24.7094 10.624 23.518 11.8827 22.6671 13.4507C21.8161 15.0187 21.3906 16.8534 21.3906 18.9014C21.3906 20.928 21.848 22.752 22.7522 24.3414C23.6563 25.92 24.9115 27.1787 26.4964 28.0747C28.0707 28.96 29.9109 29.4187 31.9532 29.4187C33.102 29.4187 34.3359 29.1947 35.6017 28.7361C36.8781 28.2881 37.9418 27.7014 38.7609 26.9974C39.3034 26.5707 39.4097 26.08 39.3991 25.7387C39.3778 25.2694 39.1544 24.832 38.7077 24.448C38.3886 24.16 37.995 24.0321 37.5163 24.0427C37.0589 24.0534 36.6547 24.2027 36.2824 24.4801C35.8144 24.8854 35.1656 25.2267 34.3571 25.504C33.5381 25.7814 32.7297 25.9201 31.9532 25.9201C30.5916 25.9201 29.379 25.6214 28.3472 25.024C27.3048 24.4267 26.4858 23.5947 25.8901 22.5387C25.7837 22.3467 25.6773 22.1334 25.5816 21.9094L39.1012 20.288C39.6012 20.288 40.0267 20.1174 40.3564 19.7974C40.6968 19.4667 40.8776 19.04 40.8776 18.5174C40.8776 16.576 40.4947 14.8161 39.7288 13.2801C38.9417 11.7547 37.8248 10.528 36.3994 9.66405ZM27.9749 12.7254C28.9429 12.1387 30.0917 11.8294 31.3894 11.8294C32.6127 11.8294 33.687 12.1174 34.5699 12.6827C35.4528 13.248 36.1335 14.0481 36.6122 15.0401C36.8888 15.6267 37.0909 16.2667 37.1972 16.9601L24.9859 18.4107C25.0391 17.2267 25.2944 16.16 25.7518 15.2107C26.2624 14.1547 27.007 13.3227 27.9749 12.7254Z" fill="white"/>
<path d="M60.8754 9.72798C59.3117 8.81064 57.5141 8.34131 55.5462 8.34131C53.5997 8.34131 51.8126 8.81064 50.2384 9.71731C48.6641 10.6346 47.3983 11.904 46.4835 13.4826C45.5687 15.0613 45.1113 16.8853 45.1113 18.88C45.1113 20.8533 45.5581 22.656 46.4303 24.2346C47.3026 25.8133 48.5152 27.0826 50.015 28C51.5254 28.9173 53.2486 29.3866 55.1527 29.3866C56.9822 29.3866 58.6416 28.9493 60.0882 28.0746C60.8541 27.616 61.5455 27.0506 62.1518 26.4106V27.296C62.1518 27.8613 62.3433 28.3306 62.7262 28.6826C63.0985 29.024 63.5665 29.2053 64.1303 29.2053C64.6622 29.2053 65.1195 29.024 65.4812 28.6826C65.8429 28.3306 66.0343 27.8613 66.0343 27.296V18.8693C66.0131 16.864 65.5344 15.0506 64.6196 13.472C63.6942 11.9146 62.439 10.6453 60.8754 9.72798ZM62.2476 18.8906C62.2476 20.2026 61.9497 21.408 61.3647 22.464C60.7796 23.52 59.9819 24.3626 58.9926 24.9706C58.0034 25.5786 56.8546 25.8773 55.5675 25.8773C54.3123 25.8773 53.1529 25.568 52.1424 24.96C51.1212 24.352 50.3128 23.5093 49.7172 22.4533C49.1215 21.3973 48.8236 20.2026 48.8236 18.88C48.8236 17.5466 49.1215 16.3413 49.7172 15.296C50.3128 14.2506 51.1319 13.408 52.153 12.7893C53.1635 12.1706 54.3123 11.8613 55.5782 11.8613C56.8546 11.8613 58.0034 12.1706 58.9926 12.7893C59.9819 13.408 60.7903 14.2506 61.3753 15.296C61.9497 16.352 62.2476 17.5573 62.2476 18.8906Z" fill="white"/>
<path d="M80.1282 25.984C79.8091 25.6213 79.3942 25.44 78.8943 25.44H77.9901C77.4902 25.44 77.0966 25.184 76.7669 24.6507C76.4052 24.0747 76.2244 23.3067 76.2244 22.3893V1.90933C76.2244 1.344 76.0436 0.885333 75.6925 0.533333C75.3415 0.181333 74.8948 0 74.3523 0C73.7885 0 73.3311 0.181333 72.9801 0.533333C72.6291 0.885333 72.4482 1.344 72.4482 1.90933V22.3893C72.4482 23.7013 72.6823 24.8853 73.1396 25.8987C73.597 26.9333 74.2565 27.744 75.0862 28.3307C75.9265 28.9173 76.9052 29.216 77.9901 29.216H78.3199C78.9581 29.216 79.5006 29.0453 79.9154 28.7147C80.3622 28.3627 80.5856 27.8827 80.5856 27.3067C80.5856 26.784 80.4366 26.336 80.1282 25.984Z" fill="white"/>
</svg>
