<svg width="25" height="24" viewBox="0 0 25 24" fill="none" xmlns="http://www.w3.org/2000/svg">
<path d="M8.08325 6.75C8.08325 4.40614 9.98939 2.5 12.3333 2.5C14.6768 2.5 16.5827 4.40562 16.5833 6.74903C16.5738 9.04858 14.78 10.9052 12.4942 10.99H12.4942H12.4942H12.4942H12.4941H12.4941H12.4941H12.494H12.494H12.494H12.494H12.4939H12.4939H12.4939H12.4938H12.4938H12.4938H12.4938H12.4937H12.4937H12.4937H12.4936H12.4936H12.4936H12.4935H12.4935H12.4935H12.4935H12.4934H12.4934H12.4934H12.4933H12.4933H12.4933H12.4933H12.4932H12.4932H12.4932H12.4931H12.4931H12.4931H12.493H12.493H12.493H12.493H12.4929H12.4929H12.4929H12.4928H12.4928H12.4928H12.4928H12.4927H12.4927H12.4927H12.4926H12.4926H12.4926H12.4925H12.4925H12.4925H12.4925H12.4924H12.4924H12.4924H12.4923H12.4923H12.4923H12.4922H12.4922H12.4922H12.4922H12.4921H12.4921H12.4921H12.492H12.492H12.492H12.492H12.4919H12.4919H12.4919H12.4918H12.4918H12.4918H12.4917H12.4917H12.4917H12.4916H12.4916H12.4916H12.4916H12.4915H12.4915H12.4915H12.4914H12.4914H12.4914H12.4913H12.4913H12.4913H12.4912H12.4912H12.4912H12.4911H12.4911H12.4911H12.4911H12.491H12.491H12.491H12.4909H12.4909H12.4909H12.4908H12.4908H12.4908H12.4907H12.4907H12.4907H12.4906H12.4906H12.4906H12.4905H12.4905H12.4905H12.4904H12.4904H12.4904H12.4903H12.4903H12.4903H12.4902H12.4902H12.4902H12.4901H12.4901H12.4901H12.49H12.49H12.49H12.4899H12.4899H12.4899H12.4898H12.4898H12.4898H12.4897H12.4897H12.4897H12.4896H12.4896H12.4895H12.4895H12.4895H12.4894H12.4894H12.4894H12.4893H12.4893H12.4893H12.4892H12.4892H12.4892H12.4891H12.4891H12.489H12.489H12.489H12.4889H12.4889H12.4889H12.4888H12.4888H12.4887H12.4887H12.4887H12.4886H12.4886H12.4885H12.4885H12.4885H12.4884H12.4884H12.4884H12.4883H12.4883H12.4882H12.4882H12.4882H12.4881H12.4881H12.488H12.488H12.488H12.4879H12.4879H12.4878H12.4878H12.4877H12.4877H12.4877H12.4876H12.4876H12.4875H12.4875H12.4875H12.4874H12.4874H12.4873H12.4873H12.4872H12.4872H12.4872H12.4871H12.4871H12.487H12.487H12.4869H12.4869H12.4868H12.4868H12.4868H12.4867H12.4867H12.4866H12.4866H12.4865H12.4865H12.4864H12.4864H12.4863H12.4863H12.4862H12.4862H12.4862H12.4861H12.4861H12.486H12.486H12.4859H12.4859H12.4858H12.4858H12.4857H12.4857H12.4856H12.4856H12.4855H12.4855H12.4854H12.4854H12.4853H12.4853H12.4852H12.4852H12.4851H12.4851H12.485H12.485H12.4849H12.4849H12.4848H12.4848H12.4847H12.4846H12.4846H12.4845H12.4845H12.4844H12.4844H12.4843H12.4843H12.4842H12.4842H12.4841H12.484H12.484H12.4839H12.4839H12.4838H12.4838H12.4837H12.4837H12.4836H12.4835H12.4835H12.4834H12.4834H12.4833H12.4833H12.4831H12.483H12.4829H12.4828H12.4827H12.4826H12.4824H12.4823H12.4822H12.4821H12.482H12.4819H12.4817H12.4816H12.4815H12.4814H12.4813H12.4812H12.4811H12.481H12.4808H12.4807H12.4806H12.4805H12.4804H12.4803H12.4802H12.4801H12.4799H12.4798H12.4797H12.4796H12.4795H12.4794H12.4793H12.4792H12.4791H12.479H12.4788H12.4787H12.4786H12.4785H12.4784H12.4783H12.4782H12.4781H12.478H12.4779H12.4778H12.4777H12.4776H12.4774H12.4773H12.4772H12.4771H12.477H12.4769H12.4768H12.4767H12.4766H12.4765H12.4764H12.4763H12.4762H12.4761H12.476H12.4759H12.4758H12.4757H12.4756H12.4755H12.4754H12.4752H12.4751H12.475H12.4749H12.4748H12.4747H12.4746H12.4745H12.4744H12.4743H12.4742H12.4741H12.474H12.4739H12.4738H12.4737H12.4736H12.4735H12.4734H12.4733H12.4732H12.4731H12.473H12.4729H12.4728H12.4727H12.4726H12.4725H12.4724H12.4723H12.4722H12.4721H12.472H12.4719H12.4718H12.4717H12.4716H12.4715H12.4714H12.4714H12.4713H12.4712H12.4711H12.471H12.4709H12.4708H12.4707H12.4706H12.4705H12.4704H12.4703H12.4702H12.4701H12.47H12.4699H12.4698H12.4697H12.4696H12.4695H12.4694H12.4693H12.4692H12.4692H12.4691H12.469H12.4689H12.4688H12.4687H12.4686H12.4685H12.4684H12.4683H12.4682H12.4681H12.468H12.4679H12.4678H12.4677H12.4677H12.4676H12.4675H12.4674H12.4673H12.4672H12.4671H12.467C12.3765 10.9796 12.2824 10.9808 12.1958 10.989C9.85863 10.8911 8.08325 9.03575 8.08325 6.75Z" fill="white" stroke="white"/>
<path d="M7.53193 20.1749L7.53056 20.174C6.37161 19.4013 5.79321 18.4018 5.79321 17.38C5.79321 16.3579 6.37197 15.3485 7.54025 14.5662C8.84681 13.7018 10.585 13.255 12.3457 13.255C14.107 13.255 15.8399 13.7021 17.1359 14.566C18.2912 15.3363 18.8641 16.3356 18.8732 17.3621C18.8724 18.3935 18.2935 19.3928 17.1341 20.1752C15.8332 21.0484 14.096 21.5 12.3332 21.5C10.5703 21.5 8.83282 21.0483 7.53193 20.1749Z" fill="white" stroke="white"/>
</svg>
