<svg width="25" height="24" viewBox="0 0 25 24" fill="none" xmlns="http://www.w3.org/2000/svg">
<path d="M12.4933 10.87C12.3933 10.86 12.2733 10.86 12.1633 10.87C9.78331 10.79 7.89331 8.84 7.89331 6.44C7.89331 3.99 9.87331 2 12.3333 2C14.7833 2 16.7733 3.99 16.7733 6.44C16.7633 8.84 14.8733 10.79 12.4933 10.87Z" stroke="white" stroke-width="1.5" stroke-linecap="round" stroke-linejoin="round"/>
<path d="M7.49328 14.56C5.07328 16.18 5.07328 18.82 7.49328 20.43C10.2433 22.27 14.7533 22.27 17.5033 20.43C19.9233 18.81 19.9233 16.17 17.5033 14.56C14.7633 12.73 10.2533 12.73 7.49328 14.56Z" stroke="white" stroke-width="1.5" stroke-linecap="round" stroke-linejoin="round"/>
</svg>
