<svg width="21" height="20" viewBox="0 0 21 20" fill="none" xmlns="http://www.w3.org/2000/svg">
<path fill-rule="evenodd" clip-rule="evenodd" d="M3.55661 8.05658C3.07491 8.53827 2.79175 9.35336 2.79175 10.7501V14.2501C2.79175 15.6467 3.07491 16.4618 3.55661 16.9435C4.0383 17.4252 4.85339 17.7084 6.25008 17.7084H9.75008C11.1468 17.7084 11.9619 17.4252 12.4436 16.9435C12.9252 16.4618 13.2084 15.6467 13.2084 14.2501V10.7501C13.2084 9.35336 12.9252 8.53827 12.4436 8.05658C11.9619 7.57488 11.1468 7.29172 9.75008 7.29172H6.25008C4.85339 7.29172 4.0383 7.57488 3.55661 8.05658ZM2.67272 7.17269C3.50353 6.34189 4.7301 6.04172 6.25008 6.04172H9.75008C11.2701 6.04172 12.4966 6.34189 13.3274 7.17269C14.1582 8.0035 14.4584 9.23007 14.4584 10.7501V14.2501C14.4584 15.77 14.1582 16.9966 13.3274 17.8274C12.4966 18.6582 11.2701 18.9584 9.75008 18.9584H6.25008C4.7301 18.9584 3.50353 18.6582 2.67272 17.8274C1.84192 16.9966 1.54175 15.77 1.54175 14.2501V10.7501C1.54175 9.23007 1.84192 8.0035 2.67272 7.17269Z" fill="#373E97"/>
<path fill-rule="evenodd" clip-rule="evenodd" d="M8.55661 3.05658C8.07491 3.53827 7.79175 4.35336 7.79175 5.75005V6.04172H9.75008C11.2701 6.04172 12.4966 6.34188 13.3274 7.17269C14.1582 8.0035 14.4584 9.23007 14.4584 10.7501V12.7084H14.7501C16.1468 12.7084 16.9619 12.4252 17.4436 11.9435C17.9253 11.4618 18.2084 10.6467 18.2084 9.25005V5.75005C18.2084 4.35336 17.9253 3.53827 17.4436 3.05658C16.9619 2.57488 16.1468 2.29172 14.7501 2.29172H11.2501C9.85339 2.29172 9.0383 2.57488 8.55661 3.05658ZM7.67272 2.17269C8.50353 1.34189 9.7301 1.04172 11.2501 1.04172H14.7501C16.2701 1.04172 17.4966 1.34189 18.3274 2.17269C19.1582 3.0035 19.4584 4.23007 19.4584 5.75005V9.25005C19.4584 10.77 19.1582 11.9966 18.3274 12.8274C17.4966 13.6582 16.2701 13.9584 14.7501 13.9584H13.8334C13.4882 13.9584 13.2084 13.6786 13.2084 13.3334V10.7501C13.2084 9.35336 12.9252 8.53827 12.4436 8.05658C11.9619 7.57488 11.1468 7.29172 9.75008 7.29172H7.16675C6.82157 7.29172 6.54175 7.0119 6.54175 6.66672V5.75005C6.54175 4.23007 6.84192 3.0035 7.67272 2.17269Z" fill="#373E97"/>
</svg>
