<svg width="16" height="16" viewBox="0 0 16 16" fill="none" xmlns="http://www.w3.org/2000/svg">
<path d="M2.97794 12.251L2.97623 12.2494C2.87384 12.153 2.79161 12.0287 2.7379 11.8827C2.78743 12.0144 2.8649 12.1379 2.97668 12.2435C3.24742 12.4992 3.60494 12.5413 3.91489 12.4944L3.91491 12.4944L3.92418 12.4929L6.07084 12.1262L6.07161 12.1261C6.24469 12.0962 6.42765 12.0166 6.56936 11.9403C6.71136 11.8639 6.87668 11.7561 6.9954 11.6315L6.99677 11.63L12.4701 5.8367L12.4711 5.83566C12.8994 5.37976 13.2896 4.84537 13.3282 4.20516C13.3471 3.89276 13.2814 3.59052 13.1392 3.29445C13.267 3.55694 13.3284 3.80915 13.3352 4.05077C13.3502 4.58109 13.1057 5.17725 12.4765 5.8433L7.00321 11.6366L7.0032 11.6366L7.00113 11.6388C6.7959 11.8587 6.37571 12.0846 6.0791 12.1332L6.0791 12.1332L6.07581 12.1338L3.9557 12.4959C3.89891 12.4996 3.8593 12.5031 3.82658 12.506C3.77815 12.5104 3.74484 12.5133 3.69332 12.5133C3.39914 12.5133 3.14747 12.4123 2.97794 12.251ZM3.08357 8.64188C3.05452 8.70413 3.02563 8.77298 3.00024 8.84437C3.02256 8.78064 3.04927 8.71456 3.08014 8.6481C3.09959 8.60621 3.11989 8.56591 3.14071 8.52753C3.11975 8.56674 3.10065 8.60528 3.08357 8.64188Z" fill="#2D3133" stroke="#373E97"/>
<path d="M7.93941 3.37088C8.19342 4.98848 9.37783 6.27783 10.9232 6.68745C9.37549 6.28043 8.18741 4.99573 7.93474 3.374L7.93464 3.37269L7.93465 3.3726C7.93466 3.37254 7.93485 3.37185 7.93562 3.3708C7.93594 3.37037 7.9363 3.36996 7.93668 3.36958C7.93741 3.37023 7.93806 3.371 7.93857 3.37182C7.93911 3.37268 7.93994 3.37426 7.94049 3.37746L8.43336 3.29331L7.93941 3.37088ZM11.5691 6.80479C11.5691 6.80479 11.5691 6.80478 11.5691 6.80477L11.5691 6.80479Z" fill="#2D3133" stroke="#373E97"/>
<path d="M14 15.1667H2C1.72667 15.1667 1.5 14.94 1.5 14.6667C1.5 14.3934 1.72667 14.1667 2 14.1667H14C14.2733 14.1667 14.5 14.3934 14.5 14.6667C14.5 14.94 14.2733 15.1667 14 15.1667Z" fill="#2D3133"/>
</svg>
