<svg width="24" height="24" viewBox="0 0 24 24" fill="none" xmlns="http://www.w3.org/2000/svg">
<g clip-path="url(#clip0_8496_16755)">
<path d="M12 0C5.37225 0 0 5.37225 0 12C0 18.6278 5.373 24 12 24C18.6278 24 24 18.6278 24 12C24 5.37225 18.6278 0 12 0ZM13.5502 14.22C13.8 14.4367 13.9943 15.201 13.9943 15.552V18.66H12.2205H10.4445C10.4445 18.66 10.4497 17.6062 10.4445 16.884C8.0145 17.4067 7.3365 15.552 7.3365 15.552C6.8925 14.664 6.4485 14.22 6.4485 14.22C5.5605 13.6927 6.4485 13.776 6.4485 13.776C7.3365 13.776 7.7805 14.664 7.7805 14.664C8.55975 15.987 9.9465 15.774 10.4445 15.552C10.4445 15.108 10.6388 14.4367 10.8885 14.22C8.949 14.0017 7.335 12.888 7.335 10.668C7.335 8.448 7.7805 8.004 8.2245 7.56C8.1345 7.341 7.76325 6.5325 8.238 5.34C8.238 5.34 9.11025 5.34 9.99825 6.672C10.4385 6.23175 11.7743 6.228 12.219 6.228C12.6622 6.228 13.9987 6.23175 14.4382 6.672C15.3263 5.34 16.2008 5.34 16.2008 5.34C16.6755 6.5325 16.3042 7.341 16.2142 7.56C16.6582 8.004 17.1022 8.448 17.1022 10.668C17.103 12.888 15.4905 14.0017 13.5502 14.22Z" fill="#373E97"/>
</g>
<defs>
<clipPath id="clip0_8496_16755">
<rect width="24" height="24" fill="white"/>
</clipPath>
</defs>
</svg>
