<svg width="32" height="32" viewBox="0 0 32 32" fill="none" xmlns="http://www.w3.org/2000/svg">
<path d="M7.92002 22.36L5.70672 26.12C5.54672 26.4 5.13331 26.4 4.95997 26.12L2.70672 22.36C2.53339 22.0667 2.74668 21.7067 3.08001 21.7067H7.54664C7.87998 21.7067 8.08002 22.08 7.92002 22.36Z" fill="#11A861"/>
<path d="M15.5866 11.2133L10.3199 19.84C10.1999 20.04 9.98657 20.1466 9.7599 20.1466H2.99989C2.49322 20.1466 2.17323 19.6134 2.42657 19.1867L11.0399 4.97335C11.2933 4.56001 11.9199 4.54668 12.1732 4.97335L15.5866 10.5867C15.7066 10.7733 15.7066 11.0133 15.5866 11.2133Z" fill="#11A861"/>
<path d="M18.2132 4.53333L16.28 7.82666C16.1466 8.05333 15.7999 8.05333 15.6666 7.82666L13.7333 4.53333C13.5999 4.29333 13.76 4 14.04 4H17.9066C18.1866 4 18.3466 4.29333 18.2132 4.53333Z" fill="#FFCF63"/>
<path d="M29.5599 19.16C29.8266 19.6 29.4932 20.16 28.9866 20.16H22.4932C22.2666 20.16 22.0666 20.04 21.9466 19.8533L16.8666 11.2267C16.7466 11.0267 16.7466 10.7867 16.8666 10.5867L20.1599 4.97335C20.3999 4.56001 21.0132 4.54668 21.2532 4.97335C22.8799 7.78668 27.8532 16.24 29.5599 19.16Z" fill="#FFCF63"/>
<path d="M29.2399 22.36C28.5066 23.6 27.7199 24.9333 26.9999 26.1466C26.8266 26.44 26.4132 26.4267 26.2399 26.1333L24.0266 22.36C23.8533 22.0666 24.0666 21.6933 24.4132 21.6933H28.8532C29.1999 21.7066 29.4132 22.0666 29.2399 22.36Z" fill="#3777E3"/>
<path d="M24.0265 28H7.91984C7.43984 28 7.14648 27.48 7.38648 27.0667L10.4932 21.7867C10.5998 21.6 10.7999 21.48 11.0265 21.48H20.9198C21.1332 21.48 21.3465 21.6 21.4532 21.7867L24.5598 27.0667C24.7998 27.48 24.5065 28 24.0265 28Z" fill="#3777E3"/>
</svg>
