<svg width="32" height="32" viewBox="0 0 32 32" fill="none" xmlns="http://www.w3.org/2000/svg">
<path d="M28.9867 17.2133C28.6401 16.0667 28.0667 15.0667 27.3067 14.2533C26.3334 13.1467 25.0401 12.3867 23.5868 12.0533C22.8534 8.72 20.8001 6.32 17.8801 5.42666C14.7067 4.44 11.0267 5.4 8.72008 7.81333C6.69341 9.93333 6.02675 12.8533 6.81342 15.96C4.14675 16.6133 2.82675 18.84 2.68008 20.96C2.66675 21.1067 2.66675 21.24 2.66675 21.3733C2.66675 23.88 4.30675 26.6933 7.96008 26.96H21.8001C23.6934 26.96 25.5067 26.2533 26.8934 24.9867C29.0667 23.08 29.8667 20.1067 28.9867 17.2133Z" fill="#6CB7EC"/>
</svg>
