<svg width="24" height="24" viewBox="0 0 24 24" fill="none" xmlns="http://www.w3.org/2000/svg">
<g clip-path="url(#clip0_8496_16761)">
<path d="M12 24C18.6274 24 24 18.6274 24 12C24 5.37258 18.6274 0 12 0C5.37258 0 0 5.37258 0 12C0 18.6274 5.37258 24 12 24Z" fill="#373E97"/>
<path d="M15.4374 19.5H8.56256C6.3225 19.5 4.5 17.6777 4.5 15.4374V8.56256C4.5 6.32231 6.3225 4.5 8.56256 4.5H15.4374C17.6777 4.5 19.5 6.32231 19.5 8.56256V15.4376C19.5 17.6777 17.6777 19.5 15.4374 19.5ZM8.56256 5.75006C7.01175 5.75006 5.75006 7.01175 5.75006 8.56256V15.4376C5.75006 16.9884 7.01175 18.2501 8.56256 18.2501H15.4374C16.9882 18.2501 18.2499 16.9884 18.2499 15.4376V8.56256C18.2499 7.01175 16.9882 5.75006 15.4374 5.75006H8.56256Z" fill="white"/>
<path d="M12 15.75C9.93225 15.75 8.25 14.0676 8.25 12C8.25 9.93206 9.93225 8.25 12 8.25C14.0677 8.25 15.75 9.93206 15.75 12C15.75 14.0676 14.0677 15.75 12 15.75ZM12 9.50006C10.6215 9.50006 9.50006 10.6215 9.50006 12C9.50006 13.3787 10.6215 14.4999 12 14.4999C13.3785 14.4999 14.4999 13.3787 14.4999 12C14.4999 10.6215 13.3787 9.50006 12 9.50006Z" fill="white"/>
<path d="M15.9843 8.87488C16.4589 8.87488 16.8436 8.49015 16.8436 8.01556C16.8436 7.54098 16.4589 7.15625 15.9843 7.15625C15.5097 7.15625 15.125 7.54098 15.125 8.01556C15.125 8.49015 15.5097 8.87488 15.9843 8.87488Z" fill="white"/>
</g>
<defs>
<clipPath id="clip0_8496_16761">
<rect width="24" height="24" fill="white"/>
</clipPath>
</defs>
</svg>
