<svg width="32" height="32" viewBox="0 0 32 32" fill="none" xmlns="http://www.w3.org/2000/svg">
<path d="M25.9129 5.37933C26.0892 5.65655 25.7871 5.97951 25.4667 5.90669C24.84 5.72002 24.1467 5.62669 23.44 5.62669H18.9564C18.7992 5.62669 18.6511 5.55274 18.5567 5.42706L16.9734 3.32002C16.7856 3.05395 16.9631 2.66669 17.2888 2.66669H20.96C23.0414 2.66669 24.8748 3.74766 25.9129 5.37933Z" fill="#444DBB"/>
<path d="M26.8534 8.72002C26.2801 8.30669 25.6267 8.00002 24.9201 7.82669C24.4401 7.69335 23.9467 7.62669 23.4401 7.62669H18.4801C17.7067 7.62669 17.6534 7.56002 17.2401 7.01335L15.3734 4.53335C14.5067 3.37335 13.8267 2.66669 11.6534 2.66669H8.56008C5.30675 2.66669 2.66675 5.30669 2.66675 8.56002V23.44C2.66675 26.6934 5.30675 29.3334 8.56008 29.3334H23.4401C26.6934 29.3334 29.3334 26.6934 29.3334 23.44V13.52C29.3334 11.5334 28.3601 9.78669 26.8534 8.72002ZM19.1867 21.7867H12.8001C12.2801 21.7867 11.8801 21.3734 11.8801 20.8534C11.8801 20.3467 12.2801 19.92 12.8001 19.92H19.1867C19.7067 19.92 20.1201 20.3467 20.1201 20.8534C20.1201 21.3734 19.7067 21.7867 19.1867 21.7867Z" fill="#444DBB"/>
</svg>
