<svg width="17" height="16" viewBox="0 0 17 16" fill="none" xmlns="http://www.w3.org/2000/svg">
<path d="M1.8335 5.99992V4.33325C1.8335 2.67325 3.1735 1.33325 4.8335 1.33325H6.50016" stroke="white" stroke-width="1.5" stroke-linecap="round" stroke-linejoin="round"/>
<path d="M10.5 1.33325H12.1667C13.8267 1.33325 15.1667 2.67325 15.1667 4.33325V5.99992" stroke="white" stroke-width="1.5" stroke-linecap="round" stroke-linejoin="round"/>
<path d="M15.1665 10.6667V11.6667C15.1665 13.3267 13.8265 14.6667 12.1665 14.6667H11.1665" stroke="white" stroke-width="1.5" stroke-linecap="round" stroke-linejoin="round"/>
<path d="M6.50016 14.6667H4.8335C3.1735 14.6667 1.8335 13.3267 1.8335 11.6667V10" stroke="white" stroke-width="1.5" stroke-linecap="round" stroke-linejoin="round"/>
<path d="M7.49984 4.66675V6.00008C7.49984 6.66675 7.1665 7.00008 6.49984 7.00008H5.1665C4.49984 7.00008 4.1665 6.66675 4.1665 6.00008V4.66675C4.1665 4.00008 4.49984 3.66675 5.1665 3.66675H6.49984C7.1665 3.66675 7.49984 4.00008 7.49984 4.66675Z" stroke="white" stroke-width="1.5" stroke-linecap="round" stroke-linejoin="round"/>
<path d="M12.8333 4.66675V6.00008C12.8333 6.66675 12.5 7.00008 11.8333 7.00008H10.5C9.83333 7.00008 9.5 6.66675 9.5 6.00008V4.66675C9.5 4.00008 9.83333 3.66675 10.5 3.66675H11.8333C12.5 3.66675 12.8333 4.00008 12.8333 4.66675Z" stroke="white" stroke-width="1.5" stroke-linecap="round" stroke-linejoin="round"/>
<path d="M7.49984 10V11.3333C7.49984 12 7.1665 12.3333 6.49984 12.3333H5.1665C4.49984 12.3333 4.1665 12 4.1665 11.3333V10C4.1665 9.33333 4.49984 9 5.1665 9H6.49984C7.1665 9 7.49984 9.33333 7.49984 10Z" stroke="white" stroke-width="1.5" stroke-linecap="round" stroke-linejoin="round"/>
<path d="M12.8333 10V11.3333C12.8333 12 12.5 12.3333 11.8333 12.3333H10.5C9.83333 12.3333 9.5 12 9.5 11.3333V10C9.5 9.33333 9.83333 9 10.5 9H11.8333C12.5 9 12.8333 9.33333 12.8333 10Z" stroke="white" stroke-width="1.5" stroke-linecap="round" stroke-linejoin="round"/>
</svg>
