<svg width="64" height="64" viewBox="0 0 64 64" fill="none" xmlns="http://www.w3.org/2000/svg">
<path d="M31.9998 60.6934C29.0931 60.6934 26.2131 59.84 23.9465 58.16L12.4797 49.6C9.43974 47.3334 7.06641 42.6133 7.06641 38.8267V19.0134C7.06641 14.9067 10.0798 10.5334 13.9465 9.09335L27.2531 4.1067C29.8931 3.12003 34.0531 3.12003 36.6931 4.1067L50.0265 9.09335C53.8931 10.5334 56.9064 14.9067 56.9064 19.0134V38.8267C56.9064 42.6133 54.5331 47.3334 51.4931 49.6L40.0265 58.16C37.7864 59.84 34.9064 60.6934 31.9998 60.6934ZM28.6664 7.84002L15.3598 12.8267C13.0664 13.68 11.0664 16.56 11.0664 19.0134V38.8267C11.0664 41.36 12.8531 44.9067 14.8531 46.4L26.3197 54.96C29.3864 57.2533 34.5864 57.2533 37.6531 54.96L49.1198 46.4C51.1465 44.88 52.9064 41.3333 52.9064 38.8267V19.0134C52.9064 16.5867 50.9065 13.7067 48.6131 12.8267L35.3064 7.84002C33.5464 7.17335 30.4531 7.17335 28.6664 7.84002Z" fill="#444DBB"/>
<path d="M32.0001 31.1201C31.9467 31.1201 31.8934 31.1201 31.8134 31.1201C27.9467 31.0134 25.1201 28.0534 25.1201 24.4534C25.1201 20.7734 28.1334 17.7601 31.8134 17.7601C35.4934 17.7601 38.5068 20.7734 38.5068 24.4534C38.4801 28.0801 35.6534 31.0134 32.0534 31.1467C32.0267 31.12 32.0267 31.1201 32.0001 31.1201ZM31.8134 21.7601C30.3201 21.7601 29.1201 22.9601 29.1201 24.4534C29.1201 25.9201 30.2668 27.0934 31.7068 27.1467C31.7068 27.1467 31.8401 27.1467 32.0001 27.1467C33.4134 27.0667 34.5068 25.8934 34.5068 24.4534C34.5334 22.9601 33.3067 21.7601 31.8134 21.7601Z" fill="#444DBB"/>
<path d="M31.9998 46.2667C29.7065 46.2667 27.3865 45.6534 25.5999 44.4534C23.8132 43.2801 22.7998 41.5467 22.7998 39.7067C22.7998 37.8667 23.8132 36.1334 25.5999 34.9334C29.1999 32.5334 34.8265 32.5601 38.3998 34.9334C40.1865 36.1067 41.1999 37.84 41.1999 39.68C41.1999 41.5201 40.1865 43.2534 38.3998 44.4534C36.6132 45.6534 34.2932 46.2667 31.9998 46.2667ZM27.8132 38.24C27.1465 38.6667 26.7731 39.2 26.7998 39.68C26.7998 40.16 27.1732 40.6934 27.8132 41.1201C30.0532 42.6134 33.9465 42.6134 36.1865 41.1201C36.8532 40.6934 37.2265 40.16 37.2265 39.68C37.2265 39.2 36.8531 38.6667 36.2131 38.24C33.9731 36.7734 30.0532 36.7734 27.8132 38.24Z" fill="#444DBB"/>
</svg>
