<svg width="24" height="24" viewBox="0 0 24 24" fill="none" xmlns="http://www.w3.org/2000/svg">
<g clip-path="url(#clip0_8496_16771)">
<path d="M12 24C18.6274 24 24 18.6274 24 12C24 5.37258 18.6274 0 12 0C5.37258 0 0 5.37258 0 12C0 18.6274 5.37258 24 12 24Z" fill="#373E97"/>
<path d="M18.4002 7.6999C17.9502 7.9499 17.4002 8.0999 16.9002 8.1499C17.4502 7.7999 17.8502 7.2499 18.0502 6.5999C17.5502 6.8999 17.0002 7.1499 16.3502 7.2999C15.8502 6.7499 15.2002 6.3999 14.4502 6.3999C13.0002 6.3999 11.8002 7.6499 11.8002 9.2499C11.8002 9.4499 11.8002 9.6999 11.8502 9.8999C9.6502 9.7999 7.7002 8.6499 6.4002 6.9499C6.1502 7.3499 6.0502 7.8499 6.0502 8.3999C6.0502 9.3999 6.5002 10.2499 7.2002 10.7499C6.7502 10.7499 6.3502 10.5999 6.0002 10.3999V10.4499C6.0002 11.7999 6.9002 12.9499 8.1002 13.2499C7.9002 13.2999 7.6502 13.3499 7.4002 13.3499C7.2502 13.3499 7.0502 13.3499 6.9002 13.2999C7.2502 14.4499 8.2002 15.2499 9.3502 15.2499C8.4502 15.9999 7.3002 16.4499 6.1002 16.4499C5.9002 16.4499 5.7002 16.4499 5.4502 16.3999C6.6002 17.1999 8.0002 17.6999 9.5002 17.6999C14.3502 17.6999 17.0002 13.3999 17.0002 9.6499C17.0002 9.5499 17.0002 9.3999 17.0002 9.2999C17.6002 8.7999 18.0502 8.2999 18.4002 7.6999Z" fill="white"/>
</g>
<defs>
<clipPath id="clip0_8496_16771">
<rect width="24" height="24" fill="white"/>
</clipPath>
</defs>
</svg>
