<svg width="25" height="24" viewBox="0 0 25 24" fill="none" xmlns="http://www.w3.org/2000/svg">
<path fill-rule="evenodd" clip-rule="evenodd" d="M6.92675 8.5C5.27096 8.5 3.91675 9.85422 3.91675 11.51V18.24C3.91675 19.8958 5.27096 21.25 6.92675 21.25H18.4067C20.0625 21.25 21.4167 19.8958 21.4167 18.24V17.8H20.2667C18.8572 17.8 17.4891 16.7693 17.3597 15.2467C17.279 14.3845 17.6073 13.579 18.1761 13.02C18.6877 12.4981 19.3891 12.2 20.1467 12.2H21.4167V11.51C21.4167 9.85422 20.0625 8.5 18.4067 8.5H6.92675ZM2.41675 11.51C2.41675 9.0258 4.44253 7 6.92675 7H18.4067C20.891 7 22.9167 9.0258 22.9167 11.51V12.95C22.9167 13.3642 22.581 13.7 22.1667 13.7H20.1467C19.7877 13.7 19.4719 13.8392 19.2441 14.0732L19.2307 14.0867C18.9646 14.3464 18.816 14.7162 18.8534 15.1089L18.8542 15.1177L18.8542 15.1177C18.9071 15.7527 19.5176 16.3 20.2667 16.3H22.1667C22.581 16.3 22.9167 16.6358 22.9167 17.05V18.24C22.9167 20.7242 20.891 22.75 18.4067 22.75H6.92675C4.44253 22.75 2.41675 20.7242 2.41675 18.24V11.51Z" fill="white"/>
<path fill-rule="evenodd" clip-rule="evenodd" d="M14.7667 3.95004C14.7667 3.14252 13.9597 2.58813 13.2126 2.87132L5.27217 5.87147C4.4554 6.18068 3.91675 6.96049 3.91675 7.84005V12.41C3.91675 12.8242 3.58096 13.16 3.16675 13.16C2.75253 13.16 2.41675 12.8242 2.41675 12.41V7.84005C2.41675 6.33973 3.33829 4.99942 4.74133 4.46854L12.6809 1.4687C12.6811 1.46864 12.6808 1.46875 12.6809 1.4687C14.4137 0.812264 16.2667 2.09771 16.2667 3.95004V7.75002C16.2667 8.16424 15.931 8.50002 15.5167 8.50002C15.1025 8.50002 14.7667 8.16424 14.7667 7.75002V3.95004Z" fill="white"/>
<path fill-rule="evenodd" clip-rule="evenodd" d="M20.1456 13.7002C19.7865 13.7002 19.4708 13.8394 19.2429 14.0734L19.2295 14.0869C18.9634 14.3466 18.8148 14.7164 18.8522 15.1091L18.8531 15.1179L18.853 15.1179C18.9059 15.7529 19.5165 16.3002 20.2656 16.3002H22.2084C22.37 16.2897 22.4756 16.1633 22.4756 16.0302V13.9702C22.4756 13.837 22.37 13.7106 22.2084 13.7002H20.1456ZM18.1749 13.0201C18.6865 12.4983 19.3879 12.2002 20.1456 12.2002H22.2256C22.2345 12.2002 22.2434 12.2004 22.2524 12.2007C23.2053 12.2347 23.9756 13.0059 23.9756 13.9702V16.0302C23.9756 16.9945 23.2053 17.7657 22.2524 17.7997C22.2434 17.8 22.2345 17.8002 22.2256 17.8002H20.2656C18.8561 17.8002 17.4879 16.7695 17.3586 15.2469C17.2778 14.3847 17.6061 13.5792 18.1749 13.0201Z" fill="white"/>
<path fill-rule="evenodd" clip-rule="evenodd" d="M6.91675 12C6.91675 11.5858 7.25253 11.25 7.66675 11.25H14.6667C15.081 11.25 15.4167 11.5858 15.4167 12C15.4167 12.4142 15.081 12.75 14.6667 12.75H7.66675C7.25253 12.75 6.91675 12.4142 6.91675 12Z" fill="white"/>
</svg>
