<svg width="25" height="24" viewBox="0 0 25 24" fill="none" xmlns="http://www.w3.org/2000/svg">
<path d="M15.5165 3.9498V7.7498H14.0165V3.9498C14.0165 3.6798 13.7765 3.5498 13.6165 3.5498C13.5665 3.5498 13.5165 3.5598 13.4665 3.5798L5.5365 6.56981C5.0065 6.7698 4.6665 7.2698 4.6665 7.8398V8.5098C3.7565 9.1898 3.1665 10.2798 3.1665 11.5098V7.8398C3.1665 6.6498 3.8965 5.5898 5.0065 5.1698L12.9465 2.1698C13.1665 2.0898 13.3965 2.0498 13.6165 2.0498C14.6165 2.0498 15.5165 2.8598 15.5165 3.9498Z" fill="white"/>
<path d="M22.1667 14.5V15.5C22.1667 15.77 21.9567 15.99 21.6767 16H20.2167C19.6867 16 19.2067 15.61 19.1667 15.09C19.1367 14.78 19.2567 14.49 19.4567 14.29C19.6367 14.1 19.8867 14 20.1567 14H21.6667C21.9567 14.01 22.1667 14.23 22.1667 14.5Z" fill="white"/>
<path d="M20.1465 12.95H21.1665C21.7165 12.95 22.1665 12.5 22.1665 11.95V11.51C22.1665 9.44 20.4765 7.75 18.4065 7.75H6.9265C6.0765 7.75 5.2965 8.03 4.6665 8.51C3.7565 9.19 3.1665 10.28 3.1665 11.51V18.24C3.1665 20.31 4.8565 22 6.9265 22H18.4065C20.4765 22 22.1665 20.31 22.1665 18.24V18.05C22.1665 17.5 21.7165 17.05 21.1665 17.05H20.2965C19.3365 17.05 18.4165 16.46 18.1665 15.53C17.9565 14.77 18.2065 14.04 18.7065 13.55C19.0765 13.17 19.5865 12.95 20.1465 12.95ZM14.6665 12.75H7.6665C7.2565 12.75 6.9165 12.41 6.9165 12C6.9165 11.59 7.2565 11.25 7.6665 11.25H14.6665C15.0765 11.25 15.4165 11.59 15.4165 12C15.4165 12.41 15.0765 12.75 14.6665 12.75Z" fill="white"/>
</svg>
